<svg data-v-423bf9ae="" xmlns="http://www.w3.org/2000/svg" viewBox="0 0 637 90" class="iconLeft"><!----><!----><!----><g data-v-423bf9ae="" id="e5a4b99e-5664-46e4-aaa4-d87db4eee1cb" fill="white" transform="matrix(5.439709663391113,0,0,5.439709663391113,102.3843765258789,7.384405136108398)"><path d="M11.62 1.40L11.62 1.40Q11.93 1.40 12.14 1.61L12.14 1.61L12.14 1.61Q12.35 1.82 12.35 2.13L12.35 2.13L12.35 11.61L12.35 11.61Q12.35 11.91 12.13 12.12L12.13 12.12L12.13 12.12Q11.91 12.33 11.62 12.33L11.62 12.33L11.62 12.33Q11.31 12.33 11.10 12.12L11.10 12.12L11.10 12.12Q10.89 11.91 10.89 11.61L10.89 11.61L10.89 4.65L7.50 11.55L7.50 11.55Q7.27 11.91 6.87 11.91L6.87 11.91L6.87 11.91Q6.41 11.91 6.20 11.48L6.20 11.48L2.86 4.77L2.86 11.61L2.86 11.61Q2.86 11.91 2.65 12.12L2.65 12.12L2.65 12.12Q2.44 12.33 2.13 12.33L2.13 12.33L2.13 12.33Q1.82 12.33 1.61 12.12L1.61 12.12L1.61 12.12Q1.40 11.91 1.40 11.61L1.40 11.61L1.40 2.13L1.40 2.13Q1.40 1.82 1.61 1.61L1.61 1.61L1.61 1.61Q1.82 1.40 2.13 1.40L2.13 1.40L2.13 1.40Q2.55 1.40 2.77 1.79L2.77 1.79L6.93 10.12L10.98 1.79L10.98 1.79Q11.20 1.40 11.62 1.40L11.62 1.40ZM18.48 4.62L18.48 4.62Q19.56 4.62 20.43 5.13L20.43 5.13L20.43 5.13Q21.31 5.64 21.82 6.53L21.82 6.53L21.82 6.53Q22.33 7.42 22.33 8.51L22.33 8.51L22.33 11.63L22.33 11.63Q22.33 11.94 22.13 12.14L22.13 12.14L22.13 12.14Q21.92 12.35 21.62 12.35L21.62 12.35L21.62 12.35Q21.31 12.35 21.11 12.14L21.11 12.14L21.11 12.14Q20.90 11.94 20.90 11.63L20.90 11.63L20.90 11.12L20.90 11.12Q20.41 11.72 19.71 12.05L19.71 12.05L19.71 12.05Q19.01 12.39 18.20 12.39L18.20 12.39L18.20 12.39Q17.19 12.39 16.37 11.89L16.37 11.89L16.37 11.89Q15.55 11.38 15.09 10.49L15.09 10.49L15.09 10.49Q14.62 9.60 14.62 8.51L14.62 8.51L14.62 8.51Q14.62 7.42 15.12 6.53L15.12 6.53L15.12 6.53Q15.62 5.64 16.51 5.13L16.51 5.13L16.51 5.13Q17.40 4.62 18.48 4.62L18.48 4.62ZM18.48 11.13L18.48 11.13Q19.18 11.13 19.75 10.79L19.75 10.79L19.75 10.79Q20.31 10.44 20.64 9.85L20.64 9.85L20.64 9.85Q20.96 9.25 20.96 8.51L20.96 8.51L20.96 8.51Q20.96 7.77 20.64 7.17L20.64 7.17L20.64 7.17Q20.31 6.57 19.75 6.22L19.75 6.22L19.75 6.22Q19.18 5.88 18.48 5.88L18.48 5.88L18.48 5.88Q17.78 5.88 17.21 6.22L17.21 6.22L17.21 6.22Q16.65 6.57 16.32 7.17L16.32 7.17L16.32 7.17Q15.99 7.77 15.99 8.51L15.99 8.51L15.99 8.51Q15.99 9.25 16.32 9.85L16.32 9.85L16.32 9.85Q16.65 10.44 17.21 10.79L17.21 10.79L17.21 10.79Q17.78 11.13 18.48 11.13L18.48 11.13ZM30.24 11.33L30.24 11.33Q30.39 11.49 30.39 11.75L30.39 11.75L30.39 11.75Q30.39 12.05 30.14 12.26L30.14 12.26L30.14 12.26Q29.93 12.43 29.69 12.43L29.69 12.43L29.69 12.43Q29.39 12.43 29.19 12.18L29.19 12.18L26.53 8.89L25.83 9.51L25.83 11.65L25.83 11.65Q25.83 11.96 25.64 12.14L25.64 12.14L25.64 12.14Q25.45 12.33 25.14 12.33L25.14 12.33L25.14 12.33Q24.84 12.33 24.65 12.14L24.65 12.14L24.65 12.14Q24.46 11.96 24.46 11.65L24.46 11.65L24.46 2.09L24.46 2.09Q24.46 1.78 24.65 1.59L24.65 1.59L24.65 1.59Q24.84 1.40 25.14 1.40L25.14 1.40L25.14 1.40Q25.45 1.40 25.64 1.59L25.64 1.59L25.64 1.59Q25.83 1.78 25.83 2.09L25.83 2.09L25.83 7.78L29.23 4.75L29.23 4.75Q29.41 4.56 29.67 4.56L29.67 4.56L29.67 4.56Q29.96 4.56 30.14 4.79L30.14 4.79L30.14 4.79Q30.32 4.97 30.32 5.22L30.32 5.22L30.32 5.22Q30.32 5.52 30.10 5.70L30.10 5.70L27.52 7.99L30.24 11.33ZM39.30 8.39L39.30 8.39Q39.30 8.65 39.12 8.83L39.12 8.83L39.12 8.83Q38.93 9.00 38.65 9.00L38.65 9.00L33.33 9.00L33.33 9.00Q33.49 9.98 34.22 10.58L34.22 10.58L34.22 10.58Q34.96 11.19 36.02 11.19L36.02 11.19L36.02 11.19Q36.44 11.19 36.90 11.03L36.90 11.03L36.90 11.03Q37.35 10.88 37.65 10.65L37.65 10.65L37.65 10.65Q37.84 10.50 38.11 10.50L38.11 10.50L38.11 10.50Q38.37 10.50 38.53 10.64L38.53 10.64L38.53 10.64Q38.78 10.85 38.78 11.12L38.78 11.12L38.78 11.12Q38.78 11.37 38.56 11.54L38.56 11.54L38.56 11.54Q38.08 11.91 37.37 12.15L37.37 12.15L37.37 12.15Q36.67 12.39 36.02 12.39L36.02 12.39L36.02 12.39Q34.87 12.39 33.96 11.89L33.96 11.89L33.96 11.89Q33.05 11.40 32.54 10.51L32.54 10.51L32.54 10.51Q32.03 9.63 32.03 8.51L32.03 8.51L32.03 8.51Q32.03 7.39 32.52 6.50L32.52 6.50L32.52 6.50Q33.00 5.61 33.86 5.12L33.86 5.12L33.86 5.12Q34.72 4.62 35.81 4.62L35.81 4.62L35.81 4.62Q36.89 4.62 37.67 5.10L37.67 5.10L37.67 5.10Q38.46 5.57 38.88 6.43L38.88 6.43L38.88 6.43Q39.30 7.28 39.30 8.39L39.30 8.39ZM35.81 5.82L35.81 5.82Q34.79 5.82 34.15 6.38L34.15 6.38L34.15 6.38Q33.52 6.94 33.35 7.88L33.35 7.88L38.01 7.88L38.01 7.88Q37.88 6.94 37.31 6.38L37.31 6.38L37.31 6.38Q36.74 5.82 35.81 5.82L35.81 5.82ZM45.36 2.13L45.36 2.13Q45.36 1.81 45.57 1.60L45.57 1.60L45.57 1.60Q45.78 1.40 46.09 1.40L46.09 1.40L46.09 1.40Q46.41 1.40 46.61 1.60L46.61 1.60L46.61 1.60Q46.82 1.81 46.82 2.13L46.82 2.13L46.82 11.61L46.82 11.61Q46.82 11.91 46.61 12.12L46.61 12.12L46.61 12.12Q46.41 12.33 46.09 12.33L46.09 12.33L46.09 12.33Q45.78 12.33 45.57 12.12L45.57 12.12L45.57 12.12Q45.36 11.91 45.36 11.61L45.36 11.61L45.36 2.13ZM56.59 1.40L56.59 1.40Q56.88 1.40 57.07 1.59L57.07 1.59L57.07 1.59Q57.26 1.78 57.26 2.07L57.26 2.07L57.26 2.07Q57.26 2.37 57.07 2.55L57.07 2.55L57.07 2.55Q56.88 2.74 56.59 2.74L56.59 2.74L53.58 2.74L53.58 11.61L53.58 11.61Q53.58 11.91 53.37 12.12L53.37 12.12L53.37 12.12Q53.16 12.33 52.85 12.33L52.85 12.33L52.85 12.33Q52.54 12.33 52.33 12.12L52.33 12.12L52.33 12.12Q52.12 11.91 52.12 11.61L52.12 11.61L52.12 2.74L49.10 2.74L49.10 2.74Q48.80 2.74 48.62 2.55L48.62 2.55L48.62 2.55Q48.43 2.37 48.43 2.07L48.43 2.07L48.43 2.07Q48.43 1.78 48.62 1.59L48.62 1.59L48.62 1.59Q48.80 1.40 49.10 1.40L49.10 1.40L56.59 1.40ZM73.99 1.40L73.99 1.40Q74.27 1.40 74.41 1.57L74.41 1.57L74.41 1.57Q74.55 1.74 74.55 2.02L74.55 2.02L74.55 2.02Q74.55 2.23 74.49 2.41L74.49 2.41L71.68 11.75L71.68 11.75Q71.58 12.01 71.39 12.17L71.39 12.17L71.39 12.17Q71.20 12.33 70.95 12.33L70.95 12.33L70.95 12.33Q70.70 12.33 70.50 12.17L70.50 12.17L70.50 12.17Q70.31 12.01 70.22 11.76L70.22 11.76L68.14 3.70L66.02 11.75L66.02 11.75Q65.93 12.01 65.74 12.17L65.74 12.17L65.74 12.17Q65.55 12.33 65.30 12.33L65.30 12.33L65.30 12.33Q65.04 12.33 64.85 12.18L64.85 12.18L64.85 12.18Q64.65 12.03 64.57 11.76L64.57 11.76L61.75 2.41L61.75 2.41Q61.70 2.23 61.70 2.03L61.70 2.03L61.70 2.03Q61.70 1.74 61.86 1.57L61.86 1.57L61.86 1.57Q62.02 1.40 62.30 1.40L62.30 1.40L62.30 1.40Q62.55 1.40 62.74 1.54L62.74 1.54L62.74 1.54Q62.93 1.68 63.01 1.95L63.01 1.95L65.31 9.93L67.42 2.03L67.42 2.03Q67.48 1.82 67.68 1.68L67.68 1.68L67.68 1.68Q67.87 1.54 68.12 1.54L68.12 1.54L68.12 1.54Q68.36 1.54 68.56 1.67L68.56 1.67L68.56 1.67Q68.75 1.79 68.81 2.02L68.81 2.02L70.95 9.98L73.28 1.88L73.28 1.88Q73.35 1.62 73.52 1.51L73.52 1.51L73.52 1.51Q73.70 1.40 73.99 1.40L73.99 1.40ZM79.44 4.62L79.44 4.62Q80.54 4.62 81.42 5.12L81.42 5.12L81.42 5.12Q82.29 5.61 82.79 6.50L82.79 6.50L82.79 6.50Q83.29 7.38 83.29 8.51L83.29 8.51L83.29 8.51Q83.29 9.63 82.80 10.51L82.80 10.51L82.80 10.51Q82.31 11.40 81.43 11.89L81.43 11.89L81.43 11.89Q80.56 12.39 79.44 12.39L79.44 12.39L79.44 12.39Q78.32 12.39 77.43 11.89L77.43 11.89L77.43 11.89Q76.55 11.40 76.06 10.51L76.06 10.51L76.06 10.51Q75.57 9.63 75.57 8.51L75.57 8.51L75.57 8.51Q75.57 7.38 76.06 6.50L76.06 6.50L76.06 6.50Q76.55 5.61 77.43 5.12L77.43 5.12L77.43 5.12Q78.32 4.62 79.44 4.62L79.44 4.62ZM79.44 5.88L79.44 5.88Q78.72 5.88 78.16 6.22L78.16 6.22L78.16 6.22Q77.59 6.55 77.27 7.15L77.27 7.15L77.27 7.15Q76.94 7.76 76.94 8.51L76.94 8.51L76.94 8.51Q76.94 9.27 77.27 9.86L77.27 9.86L77.27 9.86Q77.59 10.46 78.16 10.79L78.16 10.79L78.16 10.79Q78.72 11.13 79.44 11.13L79.44 11.13L79.44 11.13Q80.15 11.13 80.72 10.79L80.72 10.79L80.72 10.79Q81.28 10.46 81.60 9.86L81.60 9.86L81.60 9.86Q81.91 9.27 81.91 8.51L81.91 8.51L81.91 8.51Q81.91 7.76 81.60 7.15L81.60 7.15L81.60 7.15Q81.28 6.55 80.72 6.22L80.72 6.22L80.72 6.22Q80.15 5.88 79.44 5.88L79.44 5.88ZM89.17 4.59L89.17 4.59Q89.91 4.59 90.33 4.82L90.33 4.82L90.33 4.82Q90.75 5.04 90.75 5.38L90.75 5.38L90.75 5.38Q90.75 5.47 90.73 5.52L90.73 5.52L90.73 5.52Q90.61 5.96 90.17 5.96L90.17 5.96L90.17 5.96Q90.10 5.96 89.96 5.94L89.96 5.94L89.96 5.94Q89.40 5.84 89.05 5.84L89.05 5.84L89.05 5.84Q88.05 5.84 87.43 6.30L87.43 6.30L87.43 6.30Q86.81 6.76 86.81 7.55L86.81 7.55L86.81 11.63L86.81 11.63Q86.81 11.97 86.64 12.15L86.64 12.15L86.64 12.15Q86.46 12.33 86.11 12.33L86.11 12.33L86.11 12.33Q85.78 12.33 85.60 12.16L85.60 12.16L85.60 12.16Q85.41 11.98 85.41 11.63L85.41 11.63L85.41 5.38L85.41 5.38Q85.41 5.04 85.60 4.86L85.60 4.86L85.60 4.86Q85.78 4.68 86.11 4.68L86.11 4.68L86.11 4.68Q86.81 4.68 86.81 5.38L86.81 5.38L86.81 5.64L86.81 5.64Q87.23 5.15 87.85 4.87L87.85 4.87L87.85 4.87Q88.47 4.59 89.17 4.59L89.17 4.59ZM98.00 11.33L98.00 11.33Q98.15 11.49 98.15 11.75L98.15 11.75L98.15 11.75Q98.15 12.05 97.90 12.26L97.90 12.26L97.90 12.26Q97.69 12.43 97.45 12.43L97.45 12.43L97.45 12.43Q97.15 12.43 96.95 12.18L96.95 12.18L94.29 8.89L93.59 9.51L93.59 11.65L93.59 11.65Q93.59 11.96 93.40 12.14L93.40 12.14L93.40 12.14Q93.21 12.33 92.90 12.33L92.90 12.33L92.90 12.33Q92.60 12.33 92.41 12.14L92.41 12.14L92.41 12.14Q92.22 11.96 92.22 11.65L92.22 11.65L92.22 2.09L92.22 2.09Q92.22 1.78 92.41 1.59L92.41 1.59L92.41 1.59Q92.60 1.40 92.90 1.40L92.90 1.40L92.90 1.40Q93.21 1.40 93.40 1.59L93.40 1.59L93.40 1.59Q93.59 1.78 93.59 2.09L93.59 2.09L93.59 7.78L96.99 4.75L96.99 4.75Q97.17 4.56 97.43 4.56L97.43 4.56L97.43 4.56Q97.72 4.56 97.90 4.79L97.90 4.79L97.90 4.79Q98.08 4.97 98.08 5.22L98.08 5.22L98.08 5.22Q98.08 5.52 97.86 5.70L97.86 5.70L95.28 7.99L98.00 11.33Z"></path></g><!----><g data-v-423bf9ae="" id="07db1e73-d204-4adf-9ef7-cb8528db865a" transform="matrix(2.8125,0,0,2.8125,0,0)" stroke="none" fill="white"><path d="M0 16.024L15.976 32 32 15.976 16.024 0 0 16.024zm15.989 7.323l-7.336-7.336 14.694-.022-7.358 7.358z"></path></g><!----></svg>